HIERARCHY
ROOT Hips
{
 OFFSET 0.000000 0.000000 0.000000
 CHANNELS 6 Xposition Yposition Zposition Yrotation Xrotation Zrotation
 JOINT Chest
 {
  OFFSET 0.000000 13.173100 -0.061900
  CHANNELS 3 Yrotation Xrotation Zrotation
  JOINT Chest2
  {
   OFFSET 0.000000 8.040800 0.126200
   CHANNELS 3 Yrotation Xrotation Zrotation
   JOINT Chest3
   {
    OFFSET 0.000000 7.994400 0.000000
    CHANNELS 3 Yrotation Xrotation Zrotation
    JOINT Chest4
    {
     OFFSET 0.000000 7.986200 0.000000
     CHANNELS 3 Yrotation Xrotation Zrotation
     JOINT Neck
     {
      OFFSET 0.000000 12.259400 0.000000
      CHANNELS 3 Yrotation Xrotation Zrotation
      JOINT Head
      {
       OFFSET 0.000000 7.518700 0.267100
       CHANNELS 3 Yrotation Xrotation Zrotation
       End Site
       {
        OFFSET 0.000000 13.617700 0.141000
       }
      }
     }
     JOINT RightCollar
     {
      OFFSET -2.983800 8.314300 0.000000
      CHANNELS 3 Yrotation Xrotation Zrotation
      JOINT RightShoulder
      {
       OFFSET -16.133400 0.000000 0.000000
       CHANNELS 3 Yrotation Xrotation Zrotation
       JOINT RightElbow
       {
        OFFSET 0.000000 -29.822100 0.000000
        CHANNELS 3 Yrotation Xrotation Zrotation
        JOINT RightWrist
        {
         OFFSET 0.000000 -24.437700 0.010900
         CHANNELS 3 Yrotation Xrotation Zrotation
         End Site
         {
          OFFSET 0.000000 -18.312300 0.000000
         }
        }
       }
      }
     }
     JOINT LeftCollar
     {
      OFFSET 2.983800 8.314300 0.000000
      CHANNELS 3 Yrotation Xrotation Zrotation
      JOINT LeftShoulder
      {
       OFFSET 16.133400 0.000000 0.000000
       CHANNELS 3 Yrotation Xrotation Zrotation
       JOINT LeftElbow
       {
        OFFSET 0.000000 -29.822100 0.000000
        CHANNELS 3 Yrotation Xrotation Zrotation
        JOINT LeftWrist
        {
         OFFSET 0.000000 -24.437700 0.010900
         CHANNELS 3 Yrotation Xrotation Zrotation
         End Site
         {
          OFFSET 0.000000 -18.312300 0.000000
         }
        }
       }
      }
     }
    }
   }
  }
 }
 JOINT RightHip
 {
  OFFSET -11.206700 0.306200 0.030900
  CHANNELS 3 Yrotation Xrotation Zrotation
  JOINT RightKnee
  {
   OFFSET 0.000000 -57.334900 0.009400
   CHANNELS 3 Yrotation Xrotation Zrotation
   JOINT RightAnkle
   {
    OFFSET 0.000000 -43.376200 0.036600
    CHANNELS 3 Yrotation Xrotation Zrotation
    JOINT RightToe
    {
     OFFSET 0.000000 -10.035500 18.363100
     CHANNELS 3 Yrotation Xrotation Zrotation
     End Site
     {
      OFFSET 0.000000 -1.618500 7.239000
     }
    }
   }
  }
 }
 JOINT LeftHip
 {
  OFFSET 11.206700 0.306200 0.030900
  CHANNELS 3 Yrotation Xrotation Zrotation
  JOINT LeftKnee
  {
   OFFSET 0.000000 -57.334900 0.009400
   CHANNELS 3 Yrotation Xrotation Zrotation
   JOINT LeftAnkle
   {
    OFFSET 0.000000 -43.376200 0.036600
    CHANNELS 3 Yrotation Xrotation Zrotation
    JOINT LeftToe
    {
     OFFSET 0.000000 -10.035500 18.363100
     CHANNELS 3 Yrotation Xrotation Zrotation
     End Site
     {
      OFFSET 0.000000 -1.618500 7.239000
     }
    }
   }
  }
 }
}
MOTION
Frames: 9
Frame Time: 0.008333
-98.362810 64.825881 86.592845 173.662193 -36.248369 -2.984323 1.846660 20.419685 1.365942 0.224415 2.633152 0.279345 0.367256 4.296846 0.444124 1.740007 17.504647 2.021347 -0.021963 13.023977 -1.223513 0.487553 -11.522873 -2.303621 -1.982983 -0.750285 -3.921140 -6.310805 -2.409133 1.524805 161.650074 -64.975592 -150.543357 0.183391 -10.775601 8.744619 -3.262955 -0.357402 -0.431952 11.765037 -4.416859 5.026761 -171.459367 -58.393412 157.386678 -10.742164 -23.573535 23.043924 -3.960150 -44.441353 4.150935 -110.372386 88.476607 -105.799616 -0.792810 -9.147100 -2.805617 0.056053 -0.186859 0.021610 -3.709812 -41.472375 4.910386 75.953100 83.835172 65.789543 -5.410326 -13.887734 8.278929 0.268203 1.173135 0.138472
-98.363529 64.811792 86.593969 173.659253 -36.249764 -2.971227 1.848476 20.428657 1.365376 0.226244 2.636034 0.283186 0.368482 4.302293 0.445973 1.744466 17.514044 2.023648 0.003160 13.075793 -1.210522 0.480301 -11.517825 -2.316719 -1.955969 -0.746626 -3.914258 -6.286241 -2.519732 1.522406 161.540605 -64.587238 -150.497943 0.018075 -11.345791 7.926203 -3.316877 -0.346755 -0.433362 11.679799 -4.577731 4.918650 -171.371292 -58.204629 157.388490 -10.841486 -24.005722 23.713423 -3.936481 -44.449556 4.135931 -110.763778 88.476784 -106.186952 -0.801686 -9.150909 -2.806693 0.055670 -0.187055 0.027812 -3.701218 -41.473744 4.888049 75.984866 83.822643 65.824882 -5.408875 -13.890199 8.273081 0.262447 1.175080 0.138160
-98.364495 64.798565 86.594917 173.655683 -36.259148 -2.959475 1.858070 20.449875 1.386536 0.221644 2.632901 0.270428 0.369498 4.307679 0.448150 1.751087 17.524558 2.031705 0.011978 13.108000 -1.209323 0.483414 -11.485824 -2.329344 -1.935940 -0.739397 -3.912429 -6.290680 -2.591356 1.513409 161.475461 -64.179498 -150.457819 -0.114219 -11.901086 7.069209 -3.368460 -0.323367 -0.434734 11.585719 -4.745087 4.805901 -171.206366 -58.021275 157.332823 -10.958727 -24.418788 24.369440 -3.915005 -44.447673 4.128187 -111.258311 88.491604 -106.686945 -0.826722 -9.159395 -2.798821 0.060734 -0.184850 0.031802 -3.693476 -41.469465 4.864828 76.038935 83.810204 65.880458 -5.393482 -13.886404 8.272194 0.247172 1.168075 0.131970
-98.365244 64.785320 86.597190 173.653493 -36.267881 -2.953302 1.864217 20.461036 1.398300 0.218446 2.634196 0.263403 0.374961 4.314210 0.459197 1.750741 17.539017 2.036053 0.007169 13.106445 -1.220238 0.487728 -11.462463 -2.334861 -1.912026 -0.724070 -3.909846 -6.232499 -2.719832 1.521634 161.255271 -63.835283 -150.305876 -0.222420 -12.430976 6.177811 -3.404970 -0.297236 -0.432052 11.470414 -4.911220 4.694884 -170.984248 -57.849778 157.235764 -11.082540 -24.813267 24.985801 -3.896178 -44.446963 4.121159 -111.569087 88.492924 -106.994284 -0.839645 -9.160669 -2.795502 0.066972 -0.186241 0.032944 -3.690297 -41.463362 4.854446 76.051094 83.804741 65.895104 -5.396915 -13.887788 8.266401 0.250282 1.170153 0.134121
-98.368160 64.771962 86.600841 173.654288 -36.273225 -2.943467 1.867369 20.465503 1.404567 0.213951 2.638073 0.257474 0.381863 4.316105 0.469178 1.765394 17.557452 2.063968 0.005156 13.138542 -1.235929 0.496785 -11.385993 -2.349682 -1.897703 -0.673824 -3.904154 -6.173869 -2.879818 1.512812 161.011732 -63.511123 -150.125441 -0.311615 -12.924105 5.267322 -3.455984 -0.260947 -0.444129 11.340044 -5.080811 4.583474 -170.735834 -57.697082 157.121087 -11.203750 -25.195156 25.537180 -3.880419 -44.449560 4.103970 -111.860110 88.492601 -107.280674 -0.839714 -9.164331 -2.796926 0.067186 -0.184138 0.033134 -3.683639 -41.459984 4.839098 76.020672 83.798986 65.862244 -5.404271 -13.885297 8.266107 0.254412 1.173275 0.136948
-98.372002 64.759756 86.604964 173.657154 -36.280798 -2.934261 1.867465 20.470712 1.404934 0.216836 2.642434 0.265018 0.377236 4.315250 0.460994 1.768099 17.562576 2.070389 0.027940 13.185872 -1.228009 0.504879 -11.289263 -2.360939 -1.895512 -0.652478 -3.898817 -6.143823 -2.941251 1.508803 160.888906 -63.179605 -150.000788 -0.390139 -13.390522 4.358351 -3.487817 -0.195419 -0.429190 11.201371 -5.253344 4.471942 -170.485041 -57.575495 157.000081 -11.311257 -25.578734 26.012772 -3.866757 -44.446635 4.085916 -112.216978 88.509482 -107.637514 -0.841369 -9.174683 -2.804054 0.056615 -0.175481 0.040587 -3.678422 -41.454152 4.822640 75.964215 83.795127 65.803991 -5.410036 -13.879511 8.265316 0.261787 1.175926 0.139610
-98.374232 64.749113 86.610041 173.656929 -36.290250 -2.933596 1.870038 20.478876 1.408263 0.231007 2.626847 0.283625 0.365080 4.330838 0.447843 1.807443 17.539933 2.109721 0.003884 13.247559 -1.248143 0.507261 -11.183739 -2.364067 -1.919357 -0.563923 -3.886687 -6.053065 -3.093448 1.496094 160.616759 -62.932517 -149.784927 -0.468501 -13.854701 3.467612 -3.554884 -0.093668 -0.433952 11.060597 -5.431133 4.363200 -170.249100 -57.495499 156.881647 -11.403334 -25.975972 26.418033 -3.863749 -44.441337 4.087352 -112.184356 88.506813 -107.606139 -0.841277 -9.172930 -2.802518 0.059825 -0.176791 0.039163 -3.681957 -41.445578 4.822847 75.932389 83.790366 65.766701 -5.415018 -13.876142 8.266841 0.266388 1.178938 0.140772
-98.380131 64.738047 86.618155 173.669861 -36.285996 -2.929038 1.862149 20.462469 1.408597 0.239791 2.614013 0.286685 0.366318 4.328064 0.453876 1.820077 17.535018 2.113901 0.000656 13.317794 -1.248346 0.499776 -11.053433 -2.361978 -1.927883 -0.459429 -3.844558 -5.961832 -3.257065 1.480714 160.328092 -62.748154 -149.547924 -0.546143 -14.331414 2.604451 -3.611105 0.025612 -0.416752 10.915252 -5.615063 4.259120 -170.019352 -57.457461 156.758695 -11.486453 -26.382204 26.768504 -3.863352 -44.450306 4.067967 -112.129345 88.502811 -107.549651 -0.826568 -9.173119 -2.806054 0.057324 -0.179410 0.036844 -3.693950 -41.448943 4.823535 75.817039 83.785793 65.634749 -5.451148 -13.863916 8.267969 0.296843 1.185535 0.154200
-98.383268 64.730274 86.625747 173.664018 -36.293734 -2.927443 1.894453 20.429006 1.436603 0.222549 2.641191 0.275733 0.364550 4.327452 0.454527 1.862665 17.503544 2.132139 -0.009232 13.397763 -1.248221 0.479548 -10.905081 -2.356473 -1.963524 -0.270255 -3.730621 -5.874133 -3.494337 1.404087 160.098313 -62.623547 -149.342356 -0.618376 -14.819120 1.773376 -3.679215 0.155550 -0.396884 10.760723 -5.800683 4.157340 -169.765060 -57.455436 156.609997 -11.563051 -26.785172 27.081053 -3.875294 -44.443680 4.082051 -111.748554 88.493725 -107.181456 -0.815952 -9.167372 -2.804457 0.053756 -0.179095 0.033971 -3.693179 -41.440083 4.829944 75.736095 83.783488 65.544848 -5.458834 -13.857656 8.272488 0.291294 1.188183 0.157443
